<svg width="158" height="40" viewBox="0 0 158 40" fill="none" xmlns="http://www.w3.org/2000/svg">
<g clip-path="url(#clip0)">
<path fill-rule="evenodd" clip-rule="evenodd" d="M11.47 8.27232C11.3139 9.98899 9.98754 12.4075 8.93429 13.8122C7.7131 15.3418 6.16737 16.5811 4.4088 17.4404C3.47224 17.8696 1.40463 18.6506 0.117126 18.6506V18.8455C1.05325 18.9237 6.16393 21.8103 12.3279 17.9094C13.3446 17.2462 14.275 16.4593 15.0978 15.5668C15.7953 14.6004 16.5794 13.6995 17.4403 12.8751C17.9989 12.4479 18.6467 12.1523 19.3355 12.0104C20.0243 11.8685 20.7362 11.884 21.4182 12.0557C23.9538 12.758 26.0214 15.6057 26.0214 17.6733H26.1386V12.5247C26.0517 10.2417 25.3657 8.02168 24.1496 6.08758C23.3695 4.80008 21.2237 2.49822 19.9755 2.03016C17.9079 1.87414 15.8792 3.27877 14.7871 4.176C14.0847 4.76119 11.9393 7.14083 11.588 7.96027C11.588 7.99917 11.5491 8.0774 11.5491 8.1163L11.4708 8.27232H11.47Z" fill="url(#paint0_linear)"/>
<path fill-rule="evenodd" clip-rule="evenodd" d="M11.4695 8.27226L11.5477 8.11624C11.5477 8.07734 11.5866 7.99911 11.5866 7.96022C11.9376 7.14078 14.0834 4.76113 14.7857 4.17594C15.8779 3.27871 17.9066 1.87408 19.9742 2.0301C19.5433 1.69744 19.0712 1.42201 18.5696 1.21066C16.9535 0.501224 15.2219 0.0916159 13.4593 0.00183105H12.4839C10.2106 0.138163 8.00923 0.849604 6.08614 2.06944C4.28748 3.25037 2.78068 4.82457 1.67954 6.67316C0.585188 8.62364 0 10.8473 0 13.9292C1.2996 13.9919 2.60128 13.8604 3.86207 13.539C4.93561 13.2654 5.97091 12.8592 6.94403 12.3297C7.15626 12.1852 7.37772 12.0549 7.60701 11.9394L9.98887 10.0672C10.2231 9.83291 10.262 9.71622 10.4958 9.44308L11.4713 8.2727L11.4695 8.27226Z" fill="url(#paint1_linear)"/>
<path fill-rule="evenodd" clip-rule="evenodd" d="M14.6686 30.7436C14.8246 29.027 16.151 26.6084 17.2043 25.2038C18.4341 23.6828 19.9778 22.4452 21.7298 21.5755C22.6659 21.1464 24.7353 20.3663 26.021 20.3663V20.1713C25.0849 20.0931 19.9742 17.2065 13.8103 21.1075C12.7936 21.7706 11.8631 22.5575 11.0403 23.45C10.3428 24.4164 9.5587 25.3174 8.69783 26.1417C8.13927 26.569 7.49142 26.8646 6.80264 27.0065C6.11385 27.1484 5.40192 27.1329 4.71996 26.9611C2.18473 26.257 0.0782314 23.3704 0.0782314 21.3417H0V26.5695C0.0869662 28.8524 0.772894 31.0722 1.98893 33.0061C2.76904 34.2937 4.91488 36.5955 6.16348 37.0636C8.23109 37.2196 10.2598 35.815 11.3519 34.9177C12.0543 34.3325 14.1997 31.9529 14.551 31.1335C14.551 31.0946 14.5899 31.0163 14.5899 30.9774L14.6682 30.7432L14.6686 30.7436Z" fill="url(#paint2_linear)"/>
<path fill-rule="evenodd" clip-rule="evenodd" d="M14.6686 30.7441L14.5904 30.9002C14.5904 30.939 14.5515 31.0173 14.5515 31.0562C14.2006 31.8756 12.0547 34.2553 11.3524 34.8405C10.2603 35.7377 8.23155 37.1423 6.16394 36.9863C6.5948 37.3189 7.06694 37.5944 7.56857 37.8057C9.18471 38.5154 10.9165 38.9251 12.6792 39.015H13.6547C15.9407 38.9122 18.1599 38.2128 20.0918 36.9863C21.8891 35.8151 23.3861 34.238 24.4621 32.3821C25.5936 30.4316 26.1788 28.1687 26.1788 25.0867C24.8792 25.024 23.5775 25.1556 22.3167 25.477C21.2432 25.7506 20.2079 26.1568 19.2348 26.6863C19.0225 26.8307 18.8011 26.9611 18.5718 27.0765L16.1921 28.9492C15.9579 29.1835 15.919 29.3002 15.6852 29.5733L14.6686 30.7441Z" fill="url(#paint3_linear)"/>
<path d="M47.7512 6.98523C45.3322 6.98523 43.2646 7.80467 41.8604 9.5209V7.17838H37.8826V31.4071H42.0567V22.7853C43.5002 24.4238 45.4896 25.165 47.7525 25.165C52.941 25.165 56.7646 21.576 56.7646 16.0362C56.7633 10.5746 52.9401 6.98523 47.7512 6.98523ZM47.2832 21.6538C44.2777 21.6538 41.9793 19.508 41.9793 16.0751C41.9793 12.6422 44.2812 10.4964 47.2832 10.4964C50.2851 10.4964 52.5498 12.6422 52.5498 16.0751C52.5498 19.508 50.2873 21.6538 47.2832 21.6538ZM67.2967 6.98523C64.449 6.98523 61.6791 7.72644 59.7675 9.16996L61.4059 12.213C62.9585 11.0515 64.8509 10.4344 66.7897 10.4575C69.7546 10.4575 71.237 11.901 71.237 14.3195V14.5927H66.6333C61.2494 14.5927 59.2601 16.9352 59.2601 19.8965C59.2601 22.9785 61.8351 25.241 65.8921 25.241C68.544 25.241 70.4953 24.3827 71.4708 22.8613V25.0072H75.4111V14.5538C75.3722 9.40422 72.4074 6.98523 67.2967 6.98523ZM66.7115 22.1612C64.5657 22.1612 63.3175 21.1858 63.3175 19.7034C63.3175 18.4159 64.0976 17.3237 66.9069 17.3237H71.1981V19.3913C70.5347 21.2247 68.7402 22.1612 66.7115 22.1612ZM94.5663 7.18059V9.56024C93.0852 7.80467 90.8991 6.98523 88.4002 6.98523C83.2895 6.98523 79.4279 10.3792 79.4279 15.5288C79.4279 20.6784 83.3293 24.1506 88.4002 24.1506C90.7798 24.1506 92.8867 23.3705 94.367 21.771V22.7464C94.367 26.3353 92.6503 28.1302 88.7095 28.1302C86.2517 28.1302 83.7151 27.3108 82.1553 25.9844L80.2827 29.1053C82.3114 30.7848 85.6271 31.6409 88.9456 31.6409C95.1877 31.6409 98.5428 28.715 98.5428 22.239V7.18015L94.5663 7.18059ZM89.0265 20.6395C85.8663 20.6395 83.6037 18.5719 83.6037 15.5288C83.6037 12.5233 85.8663 10.4964 89.0265 10.4964C92.1473 10.4964 94.4103 12.5251 94.4103 15.5288C94.4103 18.5719 92.1478 20.6395 89.0265 20.6395ZM117.037 7.18015V16.1524C117.037 19.7025 115.087 21.4969 112.161 21.4969C109.547 21.4969 107.986 19.9756 107.986 16.7372V7.18015H103.812V17.3237C103.812 22.6682 106.894 25.1654 111.459 25.1654C113.76 25.1654 115.867 24.3071 117.193 22.6686V24.9298H121.171V7.18015H117.037ZM130.614 9.79405V7.18015H126.636V24.9701H130.81V16.3482C130.81 12.72 132.799 10.8473 135.96 10.8473C136.288 10.8522 136.615 10.8915 136.935 10.9644V6.98656C133.971 6.98656 131.825 7.92268 130.615 9.79537L130.614 9.79405ZM153.709 7.18015V16.1524C153.709 19.7025 151.759 21.4969 148.833 21.4969C146.219 21.4969 144.659 19.9756 144.659 16.7372V7.18015H140.484V17.3237C140.484 22.6682 143.566 25.1654 148.13 25.1654C150.432 25.1654 152.539 24.3071 153.865 22.6686V24.9298H157.843V7.18015H153.709Z" fill="white"/>
<path d="M102.447 28.1298V30.5094C102.289 30.2614 102.069 30.059 101.809 29.9221C101.549 29.7853 101.258 29.7188 100.964 29.7293C100.703 29.7214 100.442 29.7677 100.2 29.8653C99.9569 29.963 99.7369 30.1098 99.5537 30.2967C99.3705 30.4835 99.2279 30.7063 99.135 30.951C99.0421 31.1956 99.0009 31.4569 99.014 31.7182C99.0042 31.9788 99.0477 32.2386 99.1417 32.4818C99.2358 32.725 99.3785 32.9465 99.561 33.1326C99.7436 33.3188 99.9622 33.4658 100.204 33.5645C100.445 33.6633 100.704 33.7119 100.964 33.7072C101.269 33.7236 101.572 33.6558 101.84 33.5113C102.109 33.3667 102.332 33.151 102.486 32.8877V33.6678H102.991V28.1298H102.447ZM101.002 33.2404C100.698 33.2564 100.396 33.1808 100.135 33.0233C99.8742 32.8659 99.6666 32.6337 99.539 32.357C99.4113 32.0803 99.3696 31.7716 99.4193 31.471C99.4689 31.1703 99.6075 30.8914 99.8173 30.6704C100.027 30.4493 100.298 30.2962 100.596 30.2309C100.894 30.1656 101.204 30.191 101.487 30.304C101.77 30.4169 102.013 30.6121 102.184 30.8644C102.355 31.1167 102.446 31.4144 102.446 31.7191C102.456 31.9151 102.427 32.1111 102.359 32.2953C102.291 32.4794 102.186 32.6478 102.051 32.7901C101.916 32.9325 101.754 33.0458 101.573 33.1232C101.393 33.2007 101.199 33.2405 101.002 33.2404ZM104.748 28.871C104.8 28.8741 104.852 28.8662 104.901 28.8477C104.95 28.8292 104.994 28.8006 105.031 28.7637C105.068 28.7268 105.096 28.6825 105.115 28.6337C105.133 28.5849 105.141 28.5328 105.138 28.4807C105.137 28.4315 105.126 28.3831 105.105 28.3384C105.085 28.2938 105.055 28.2537 105.019 28.2209C104.982 28.188 104.939 28.163 104.893 28.1473C104.846 28.1316 104.797 28.1257 104.748 28.1298C104.696 28.1266 104.644 28.1345 104.595 28.153C104.546 28.1715 104.502 28.2002 104.465 28.2371C104.428 28.2739 104.399 28.3182 104.381 28.367C104.362 28.4158 104.354 28.468 104.358 28.52C104.359 28.5692 104.37 28.6177 104.39 28.6624C104.411 28.7071 104.44 28.7472 104.477 28.7801C104.514 28.8129 104.557 28.838 104.603 28.8536C104.65 28.8692 104.699 28.8752 104.748 28.871H104.748ZM104.475 33.7085H105.021V29.7682H104.475V33.7085ZM109.624 29.7682V30.5094C109.453 30.256 109.22 30.0509 108.946 29.9143C108.673 29.7776 108.369 29.7139 108.064 29.7293C107.806 29.7182 107.548 29.7594 107.307 29.8505C107.065 29.9416 106.844 30.0806 106.658 30.2592C106.471 30.4378 106.323 30.6523 106.222 30.8897C106.12 31.1272 106.068 31.3827 106.068 31.6409C106.068 31.8991 106.12 32.1546 106.222 32.3921C106.323 32.6295 106.471 32.844 106.658 33.0226C106.844 33.2012 107.065 33.3402 107.307 33.4313C107.548 33.5224 107.806 33.5636 108.064 33.5525C108.364 33.5677 108.663 33.5034 108.93 33.3661C109.197 33.2289 109.423 33.0234 109.586 32.7706V33.2776C109.586 34.253 109.118 34.7211 108.142 34.7211C107.572 34.7386 107.016 34.5439 106.582 34.1748L106.308 34.5651C106.826 34.9835 107.476 35.2046 108.142 35.1892C109.429 35.1892 110.092 34.5651 110.092 33.2387V29.7682H109.624ZM108.103 33.0831C107.819 33.0755 107.544 32.9845 107.311 32.8212C107.079 32.658 106.9 32.4299 106.797 32.1655C106.693 31.901 106.67 31.612 106.73 31.3344C106.79 31.0569 106.931 30.8032 107.134 30.6051C107.337 30.407 107.595 30.2733 107.874 30.2207C108.153 30.1681 108.441 30.1989 108.703 30.3093C108.964 30.4197 109.188 30.6048 109.345 30.8414C109.502 31.078 109.585 31.3556 109.585 31.6396C109.595 31.835 109.563 32.0302 109.491 32.2123C109.419 32.3943 109.31 32.5591 109.17 32.6957C109.03 32.8323 108.862 32.9375 108.678 33.0045C108.494 33.0716 108.299 33.0988 108.103 33.0844L108.103 33.0831ZM111.887 28.8697C111.939 28.8728 111.991 28.8649 112.04 28.8464C112.089 28.8279 112.133 28.7993 112.17 28.7624C112.207 28.7255 112.236 28.6812 112.254 28.6324C112.273 28.5836 112.281 28.5315 112.277 28.4794C112.276 28.4302 112.265 28.3818 112.245 28.3371C112.224 28.2924 112.195 28.2524 112.158 28.2195C112.122 28.1867 112.079 28.1616 112.032 28.146C111.986 28.1303 111.936 28.1243 111.887 28.1284C111.835 28.1253 111.783 28.1332 111.734 28.1517C111.685 28.1702 111.641 28.1988 111.604 28.2357C111.567 28.2726 111.539 28.3169 111.52 28.3657C111.502 28.4145 111.494 28.4666 111.497 28.5187C111.498 28.568 111.509 28.6166 111.529 28.6615C111.55 28.7064 111.579 28.7466 111.616 28.7796C111.653 28.8126 111.696 28.8378 111.742 28.8535C111.789 28.8692 111.839 28.8752 111.888 28.871L111.887 28.8697ZM111.614 33.7072H112.16V29.7682H111.615L111.614 33.7072ZM115.515 33.0831C115.347 33.2108 115.142 33.2793 114.93 33.278C114.838 33.2841 114.746 33.2698 114.66 33.2361C114.574 33.2024 114.497 33.1501 114.433 33.083C114.37 33.0159 114.322 32.9356 114.294 32.8479C114.265 32.7602 114.256 32.6673 114.267 32.5757V30.2332H115.477V29.7682H114.267V28.9099H113.721V29.7682H113.019V30.2363H113.721V32.6159C113.706 32.7717 113.726 32.9289 113.78 33.0758C113.834 33.2227 113.92 33.3555 114.033 33.4643C114.145 33.5731 114.281 33.6551 114.43 33.7041C114.578 33.7531 114.736 33.7679 114.891 33.7474C115.19 33.7653 115.483 33.6675 115.711 33.4743L115.516 33.084L115.515 33.0831ZM118.051 29.728C117.469 29.7106 116.901 29.9047 116.452 30.2743L116.686 30.6646C117.061 30.3609 117.529 30.1956 118.012 30.1965C118.753 30.1965 119.143 30.5474 119.143 31.2497V31.484H117.895C116.763 31.484 116.373 31.991 116.373 32.6155C116.373 33.2785 116.92 33.747 117.817 33.747C118.084 33.775 118.353 33.7278 118.594 33.6106C118.836 33.4934 119.039 33.311 119.182 33.084V33.7081H119.69V31.2506C119.651 30.2363 119.066 29.7293 118.051 29.7293V29.728ZM117.856 33.3169C117.232 33.3169 116.842 33.0438 116.842 32.5757C116.842 32.1854 117.076 31.8734 117.856 31.8734H119.104V32.4975C119.012 32.7503 118.841 32.9666 118.616 33.1142C118.391 33.2619 118.125 33.333 117.856 33.3169ZM121.094 33.7072H121.641V28.1298H121.094V33.7072ZM126.127 33.7461C127.141 33.7461 127.765 33.3169 127.765 32.6146C127.765 31.0933 125.229 31.9123 125.229 30.8201C125.229 30.4299 125.541 30.1572 126.244 30.1572C126.662 30.1401 127.074 30.2637 127.414 30.5081L127.648 30.0789C127.223 29.8306 126.736 29.7088 126.244 29.728C125.229 29.728 124.683 30.1961 124.683 30.8595C124.683 32.4201 127.219 31.6007 127.219 32.6539C127.219 33.0442 126.907 33.3169 126.166 33.3169C125.665 33.3178 125.176 33.1682 124.761 32.8877L124.527 33.3169C125.014 33.5948 125.565 33.7426 126.126 33.7461H126.127ZM130.34 33.7461C130.868 33.7461 131.373 33.5365 131.746 33.1635C132.119 32.7905 132.329 32.2846 132.329 31.7571C132.329 31.2296 132.119 30.7238 131.746 30.3508C131.373 29.9778 130.868 29.7682 130.34 29.7682C130.076 29.7563 129.812 29.7996 129.565 29.8953C129.318 29.991 129.094 30.1371 128.907 30.3242C128.72 30.5113 128.574 30.7354 128.478 30.9821C128.383 31.2288 128.339 31.4928 128.351 31.7571C128.346 32.02 128.393 32.2812 128.491 32.5251C128.589 32.769 128.736 32.9906 128.921 33.1765C129.107 33.3624 129.329 33.5088 129.573 33.6069C129.817 33.705 130.078 33.7528 130.341 33.7474L130.34 33.7461ZM130.34 33.2391C129.944 33.2274 129.569 33.062 129.293 32.7779C129.017 32.4939 128.863 32.1135 128.863 31.7176C128.863 31.3217 129.017 30.9413 129.293 30.6572C129.569 30.3732 129.944 30.2077 130.34 30.1961C130.73 30.216 131.098 30.385 131.367 30.6682C131.636 30.9513 131.786 31.327 131.786 31.7176C131.786 32.1082 131.636 32.4838 131.367 32.767C131.098 33.0502 130.73 33.2192 130.34 33.2391ZM133.422 33.7072H133.968V28.1298H133.422V33.7072ZM138.455 29.7669V31.8345C138.455 32.7317 137.947 33.278 137.129 33.278C136.387 33.278 135.958 32.8488 135.958 32.0294V29.7682H135.412V32.0701C135.387 32.2968 135.413 32.5263 135.488 32.7415C135.564 32.9568 135.687 33.1523 135.848 33.3137C136.009 33.475 136.205 33.5979 136.42 33.6734C136.635 33.7488 136.865 33.7749 137.091 33.7496C137.37 33.7631 137.648 33.7014 137.895 33.571C138.142 33.4407 138.35 33.2464 138.496 33.0084V33.7107H139.003V29.7682L138.455 29.7669ZM142.356 33.0818C142.188 33.2095 141.982 33.278 141.771 33.2767C141.679 33.2828 141.586 33.2685 141.5 33.2348C141.415 33.2011 141.337 33.1488 141.274 33.0817C141.21 33.0146 141.163 32.9343 141.134 32.8466C141.105 32.7589 141.096 32.6659 141.108 32.5744V30.2319H142.317V29.7682H141.108V28.9099H140.56V29.7682H139.858V30.2363H140.56V32.6159C140.545 32.7717 140.565 32.9289 140.619 33.0758C140.673 33.2227 140.76 33.3555 140.872 33.4643C140.985 33.5731 141.12 33.6551 141.269 33.7041C141.418 33.7531 141.575 33.7679 141.731 33.7474C142.029 33.7653 142.322 33.6675 142.55 33.4743L142.355 33.084L142.356 33.0818ZM143.799 28.8683C143.852 28.8715 143.904 28.8636 143.952 28.8451C144.001 28.8266 144.046 28.7979 144.082 28.761C144.119 28.7241 144.148 28.6798 144.166 28.6311C144.185 28.5823 144.193 28.5301 144.19 28.4781C144.189 28.4289 144.177 28.3805 144.157 28.3358C144.136 28.2911 144.107 28.2511 144.07 28.2182C144.034 28.1853 143.991 28.1603 143.944 28.1446C143.898 28.129 143.848 28.123 143.799 28.1271C143.747 28.124 143.695 28.1319 143.646 28.1504C143.598 28.1689 143.553 28.1975 143.516 28.2344C143.48 28.2713 143.451 28.3156 143.432 28.3644C143.414 28.4132 143.406 28.4653 143.409 28.5174C143.41 28.5668 143.421 28.6156 143.441 28.6606C143.462 28.7056 143.491 28.746 143.528 28.7791C143.564 28.8123 143.607 28.8376 143.654 28.8534C143.701 28.8692 143.751 28.8752 143.8 28.871L143.799 28.8683ZM143.526 33.7059H144.073V29.7682H143.526V33.7059ZM147.155 33.7448C147.682 33.7448 148.188 33.5352 148.561 33.1622C148.934 32.7892 149.143 32.2833 149.143 31.7558C149.143 31.2283 148.934 30.7224 148.561 30.3494C148.188 29.9764 147.682 29.7669 147.155 29.7669C146.627 29.7669 146.121 29.9764 145.748 30.3494C145.375 30.7224 145.166 31.2283 145.166 31.7558C145.166 32.2833 145.375 32.7892 145.748 33.1622C146.121 33.5352 146.627 33.7448 147.155 33.7448ZM147.155 33.2378C146.759 33.2261 146.383 33.0607 146.107 32.7766C145.832 32.4925 145.677 32.1122 145.677 31.7163C145.677 31.3203 145.832 30.94 146.107 30.6559C146.383 30.3718 146.759 30.2064 147.155 30.1947C147.352 30.1901 147.548 30.2269 147.731 30.3027C147.913 30.3786 148.078 30.4918 148.214 30.6352C148.35 30.7785 148.454 30.9487 148.52 31.1349C148.587 31.3211 148.613 31.519 148.598 31.716C148.61 31.9125 148.582 32.1094 148.515 32.2944C148.447 32.4795 148.343 32.6487 148.208 32.7917C148.072 32.9346 147.909 33.0482 147.728 33.1254C147.547 33.2026 147.352 33.2418 147.155 33.2404L147.155 33.2378ZM152.265 29.7267C151.974 29.709 151.684 29.7686 151.424 29.8996C151.163 30.0306 150.942 30.2282 150.783 30.4723V29.7682H150.276V33.7085H150.822V31.6409C150.804 31.4553 150.826 31.2679 150.888 31.0918C150.949 30.9158 151.049 30.7553 151.179 30.6215C151.309 30.4878 151.466 30.384 151.64 30.3175C151.815 30.2509 152.001 30.2232 152.187 30.2363C152.929 30.2363 153.358 30.6654 153.358 31.4849V33.7085H153.904V31.4066C153.865 30.2752 153.202 29.7271 152.266 29.7271L152.265 29.7267ZM156.362 33.7448C157.376 33.7448 158 33.3156 158 32.6133C158 31.092 155.464 31.911 155.464 30.8188C155.464 30.4285 155.776 30.1558 156.479 30.1558C156.897 30.1388 157.309 30.2624 157.649 30.5068L157.883 30.0776C157.458 29.8293 156.971 29.7075 156.479 29.7267C155.464 29.7267 154.918 30.1947 154.918 30.8581C154.918 32.4188 157.454 31.5994 157.454 32.6526C157.454 33.0429 157.142 33.3156 156.4 33.3156C155.9 33.3164 155.41 33.1669 154.996 32.8864L154.762 33.3156C155.249 33.5935 155.8 33.7413 156.361 33.7448H156.362Z" fill="white"/>
</g>
<defs>
<linearGradient id="paint0_linear" x1="3290.29" y1="-4262.6" x2="3510.09" y2="-3590.51" gradientUnits="userSpaceOnUse">
<stop stop-color="#F15A24"/>
<stop offset="1" stop-color="#E3450C"/>
</linearGradient>
<linearGradient id="paint1_linear" x1="2918.71" y1="-3720.26" x2="3611" y2="-3833.69" gradientUnits="userSpaceOnUse">
<stop stop-color="#E3450C"/>
<stop offset="1" stop-color="#A62E02"/>
</linearGradient>
<linearGradient id="paint2_linear" x1="3216.12" y1="-4142.6" x2="3437.79" y2="-4814.61" gradientUnits="userSpaceOnUse">
<stop stop-color="#F15A24"/>
<stop offset="1" stop-color="#E3450C"/>
</linearGradient>
<linearGradient id="paint3_linear" x1="3137.59" y1="-4663.25" x2="3829.83" y2="-4549.38" gradientUnits="userSpaceOnUse">
<stop stop-color="#E3450C"/>
<stop offset="1" stop-color="#A62E02"/>
</linearGradient>
<clipPath id="clip0">
<rect width="158" height="39.013" fill="white"/>
</clipPath>
</defs>
</svg>
