<svg width="158" height="40" viewBox="0 0 158 40" fill="none" xmlns="http://www.w3.org/2000/svg">
<path fill-rule="evenodd" clip-rule="evenodd" d="M11.47 8.27049C11.314 9.98716 9.9876 12.4057 8.93435 13.8103C7.71316 15.34 6.16743 16.5792 4.40886 17.4386C3.4723 17.8678 1.40469 18.6487 0.117188 18.6487V18.8437C1.05331 18.9219 6.16399 21.8085 12.3279 17.9075C13.3446 17.2443 14.275 16.4575 15.0978 15.565C15.7954 14.5986 16.5795 13.6976 17.4404 12.8733C17.9989 12.446 18.6468 12.1504 19.3355 12.0085C20.0243 11.8666 20.7363 11.8821 21.4182 12.0539C23.9539 12.7562 26.0215 15.6039 26.0215 17.6715H26.1386V12.5228C26.0517 10.2398 25.3658 8.01985 24.1497 6.08575C23.3696 4.79825 21.2237 2.49639 19.9756 2.02833C17.908 1.87231 15.8793 3.27694 14.7871 4.17417C14.0848 4.75935 11.9394 7.139 11.588 7.95844C11.588 7.99734 11.5491 8.07557 11.5491 8.11446L11.4709 8.27049H11.47Z" fill="url(#paint0_linear)"/>
<path fill-rule="evenodd" clip-rule="evenodd" d="M11.4695 8.27043L11.5477 8.11441C11.5477 8.07551 11.5866 7.99728 11.5866 7.95839C11.9376 7.13895 14.0834 4.7593 14.7857 4.17411C15.8779 3.27688 17.9066 1.87225 19.9742 2.02827C19.5433 1.69561 19.0712 1.42017 18.5696 1.20883C16.9535 0.499393 15.2219 0.0897848 13.4593 0H12.4839C10.2106 0.136332 8.00923 0.847773 6.08614 2.06761C4.28748 3.24854 2.78068 4.82274 1.67954 6.67133C0.585188 8.62181 0 10.8454 0 13.9274C1.2996 13.9901 2.60128 13.8585 3.86207 13.5371C4.93561 13.2636 5.97091 12.8573 6.94403 12.3279C7.15626 12.1834 7.37772 12.053 7.60701 11.9376L9.98887 10.0653C10.2231 9.83108 10.262 9.71439 10.4958 9.44125L11.4713 8.27087L11.4695 8.27043Z" fill="url(#paint1_linear)"/>
<path fill-rule="evenodd" clip-rule="evenodd" d="M14.6686 30.7418C14.8246 29.0251 16.151 26.6066 17.2043 25.202C18.4341 23.681 19.9778 22.4434 21.7298 21.5737C22.6659 21.1445 24.7353 20.3644 26.021 20.3644V20.1695C25.0849 20.0913 19.9742 17.2047 13.8103 21.1056C12.7936 21.7688 11.8631 22.5557 11.0403 23.4482C10.3428 24.4146 9.5587 25.3155 8.69783 26.1398C8.13927 26.5671 7.49142 26.8627 6.80264 27.0046C6.11385 27.1465 5.40192 27.131 4.71996 26.9593C2.18473 26.2552 0.0782314 23.3686 0.0782314 21.3399H0V26.5677C0.0869662 28.8505 0.772894 31.0704 1.98893 33.0043C2.76904 34.2918 4.91488 36.5937 6.16348 37.0617C8.23109 37.2178 10.2598 35.8131 11.3519 34.9159C12.0543 34.3307 14.1997 31.9511 14.551 31.1316C14.551 31.0927 14.5899 31.0145 14.5899 30.9756L14.6682 30.7414L14.6686 30.7418Z" fill="url(#paint2_linear)"/>
<path fill-rule="evenodd" clip-rule="evenodd" d="M14.6686 30.7423L14.5904 30.8983C14.5904 30.9372 14.5515 31.0154 14.5515 31.0543C14.2006 31.8738 12.0547 34.2534 11.3524 34.8386C10.2603 35.7359 8.23155 37.1405 6.16394 36.9845C6.5948 37.3171 7.06694 37.5926 7.56857 37.8039C9.18471 38.5135 10.9165 38.9233 12.6792 39.0132H13.6547C15.9407 38.9104 18.1599 38.2109 20.0918 36.9845C21.8891 35.8133 23.3861 34.2362 24.4621 32.3803C25.5936 30.4298 26.1788 28.1669 26.1788 25.0849C24.8792 25.0222 23.5775 25.1538 22.3167 25.4752C21.2432 25.7487 20.2079 26.1549 19.2348 26.6844C19.0225 26.8289 18.8011 26.9592 18.5718 27.0747L16.1921 28.9474C15.9579 29.1817 15.919 29.2983 15.6852 29.5715L14.6686 30.7423Z" fill="url(#paint3_linear)"/>
<path d="M47.8686 7C45.4497 7 43.3821 7.81944 41.9779 9.53567V7.19315H38V31.4219H42.1741V22.8001C43.6176 24.4385 45.607 25.1797 47.87 25.1797C53.0584 25.1797 56.8821 21.5908 56.8821 16.051C56.8807 10.5894 53.0576 7 47.8686 7ZM47.4006 21.6686C44.3951 21.6686 42.0968 19.5228 42.0968 16.0899C42.0968 12.657 44.3986 10.5111 47.4006 10.5111C50.4025 10.5111 52.6673 12.657 52.6673 16.0899C52.6673 19.5228 50.4048 21.6686 47.4006 21.6686ZM67.4141 7C64.5664 7 61.7965 7.74121 59.8849 9.18473L61.5233 12.2278C63.0759 11.0662 64.9683 10.4492 66.9072 10.4722C69.872 10.4722 71.3544 11.9158 71.3544 14.3343V14.6075H66.7507C61.3669 14.6075 59.3775 16.95 59.3775 19.9113C59.3775 22.9932 61.9525 25.2558 66.0095 25.2558C68.6614 25.2558 70.6128 24.3974 71.5882 22.8761V25.0219H75.5285V14.5686C75.4896 9.41899 72.5248 7 67.4141 7ZM66.8289 22.176C64.6831 22.176 63.4349 21.2005 63.4349 19.7181C63.4349 18.4306 64.215 17.3385 67.0243 17.3385H71.3155V19.4061C70.6521 21.2394 68.8576 22.176 66.8289 22.176ZM94.6837 7.19536V9.57501C93.2026 7.81944 91.0166 7 88.5176 7C83.4069 7 79.5453 10.394 79.5453 15.5436C79.5453 20.6931 83.4467 24.1654 88.5176 24.1654C90.8972 24.1654 93.0042 23.3853 94.4844 21.7857V22.7612C94.4844 26.3501 92.7677 28.145 88.827 28.145C86.3691 28.145 83.8325 27.3256 82.2728 25.9992L80.4001 29.12C82.4288 30.7996 85.7446 31.6557 89.063 31.6557C95.3052 31.6557 98.6603 28.7298 98.6603 22.2538V7.19492L94.6837 7.19536ZM89.1439 20.6542C85.9837 20.6542 83.7212 18.5866 83.7212 15.5436C83.7212 12.5381 85.9837 10.5111 89.1439 10.5111C92.2647 10.5111 94.5277 12.5398 94.5277 15.5436C94.5277 18.5866 92.2652 20.6542 89.1439 20.6542ZM117.155 7.19492V16.1672C117.155 19.7172 115.204 21.5117 112.278 21.5117C109.664 21.5117 108.104 19.9904 108.104 16.752V7.19492H103.93V17.3385C103.93 22.683 107.012 25.1802 111.576 25.1802C113.878 25.1802 115.984 24.3218 117.311 22.6834V24.9446H121.289V7.19492H117.155ZM130.731 9.80882V7.19492H126.753V24.9848H130.928V16.363C130.928 12.7348 132.917 10.8621 136.077 10.8621C136.406 10.867 136.733 10.9063 137.053 10.9792V7.00133C134.088 7.00133 131.942 7.93745 130.732 9.81014L130.731 9.80882ZM153.827 7.19492V16.1672C153.827 19.7172 151.876 21.5117 148.95 21.5117C146.336 21.5117 144.776 19.9904 144.776 16.752V7.19492H140.602V17.3385C140.602 22.683 143.684 25.1802 148.248 25.1802C150.55 25.1802 152.656 24.3218 153.983 22.6834V24.9446H157.961V7.19492H153.827Z" fill="#5A5A5A"/>
<path d="M102.447 28.1279V30.5076C102.289 30.2596 102.07 30.0571 101.81 29.9203C101.55 29.7835 101.258 29.717 100.965 29.7275C100.703 29.7195 100.443 29.7658 100.2 29.8635C99.957 29.9611 99.737 30.108 99.5538 30.2949C99.3706 30.4817 99.228 30.7045 99.1351 30.9491C99.0422 31.1938 99.001 31.455 99.0141 31.7164C99.0043 31.977 99.0478 32.2368 99.1418 32.48C99.2359 32.7232 99.3786 32.9446 99.5611 33.1308C99.7437 33.317 99.9623 33.4639 100.204 33.5627C100.445 33.6615 100.704 33.71 100.965 33.7054C101.269 33.7218 101.572 33.654 101.84 33.5094C102.109 33.3649 102.332 33.1491 102.486 32.8859V33.666H102.992V28.1279H102.447ZM101.003 33.2386C100.698 33.2546 100.396 33.179 100.135 33.0215C99.8744 32.864 99.6667 32.6319 99.5391 32.3552C99.4115 32.0785 99.3698 31.7698 99.4194 31.4691C99.469 31.1685 99.6076 30.8896 99.8174 30.6685C100.027 30.4475 100.298 30.2944 100.596 30.2291C100.894 30.1638 101.204 30.1892 101.487 30.3021C101.77 30.4151 102.013 30.6103 102.184 30.8625C102.355 31.1148 102.446 31.4126 102.446 31.7173C102.456 31.9133 102.427 32.1093 102.359 32.2934C102.291 32.4776 102.186 32.6459 102.051 32.7883C101.916 32.9306 101.754 33.044 101.573 33.1214C101.393 33.1988 101.199 33.2387 101.003 33.2386ZM104.748 28.8691C104.8 28.8723 104.852 28.8644 104.901 28.8459C104.95 28.8274 104.994 28.7988 105.031 28.7619C105.068 28.725 105.096 28.6807 105.115 28.6319C105.133 28.5831 105.141 28.531 105.138 28.4789C105.137 28.4297 105.126 28.3813 105.105 28.3366C105.085 28.2919 105.056 28.2519 105.019 28.219C104.982 28.1862 104.939 28.1611 104.893 28.1455C104.846 28.1298 104.797 28.1238 104.748 28.1279C104.696 28.1248 104.644 28.1327 104.595 28.1512C104.546 28.1697 104.502 28.1983 104.465 28.2352C104.428 28.2721 104.399 28.3164 104.381 28.3652C104.362 28.414 104.355 28.4661 104.358 28.5182C104.359 28.5674 104.37 28.6159 104.39 28.6606C104.411 28.7053 104.44 28.7453 104.477 28.7782C104.514 28.8111 104.557 28.8361 104.603 28.8518C104.65 28.8674 104.699 28.8733 104.748 28.8691H104.748ZM104.475 33.7067H105.021V29.7664H104.475V33.7067ZM109.624 29.7664V30.5076C109.453 30.2541 109.22 30.0491 108.947 29.9124C108.673 29.7757 108.369 29.712 108.064 29.7275C107.806 29.7164 107.548 29.7576 107.307 29.8487C107.065 29.9397 106.844 30.0788 106.658 30.2574C106.472 30.436 106.323 30.6504 106.222 30.8879C106.12 31.1254 106.068 31.3809 106.068 31.6391C106.068 31.8973 106.12 32.1528 106.222 32.3902C106.323 32.6277 106.472 32.8422 106.658 33.0208C106.844 33.1994 107.065 33.3384 107.307 33.4295C107.548 33.5205 107.806 33.5618 108.064 33.5507C108.364 33.5659 108.663 33.5016 108.93 33.3643C109.197 33.227 109.424 33.0216 109.586 32.7688V33.2757C109.586 34.2512 109.118 34.7193 108.142 34.7193C107.572 34.7368 107.016 34.5421 106.582 34.173L106.309 34.5632C106.827 34.9817 107.476 35.2028 108.142 35.1873C109.429 35.1873 110.092 34.5632 110.092 33.2368V29.7664H109.624ZM108.103 33.0813C107.819 33.0737 107.544 32.9826 107.312 32.8194C107.079 32.6562 106.9 32.4281 106.797 32.1637C106.693 31.8992 106.67 31.6101 106.73 31.3326C106.79 31.0551 106.931 30.8014 107.134 30.6033C107.338 30.4052 107.595 30.2715 107.874 30.2189C108.153 30.1662 108.441 30.1971 108.703 30.3075C108.965 30.4178 109.188 30.6029 109.345 30.8395C109.502 31.0762 109.585 31.3538 109.585 31.6377C109.595 31.8332 109.563 32.0284 109.491 32.2104C109.419 32.3925 109.31 32.5573 109.17 32.6938C109.03 32.8304 108.862 32.9357 108.678 33.0027C108.495 33.0697 108.299 33.097 108.104 33.0826L108.103 33.0813ZM111.887 28.8678C111.939 28.871 111.992 28.8631 112.04 28.8446C112.089 28.8261 112.133 28.7974 112.17 28.7605C112.207 28.7236 112.236 28.6793 112.254 28.6306C112.273 28.5818 112.281 28.5296 112.278 28.4776C112.277 28.4284 112.265 28.38 112.245 28.3353C112.224 28.2906 112.195 28.2506 112.158 28.2177C112.122 28.1848 112.079 28.1598 112.032 28.1441C111.986 28.1285 111.936 28.1225 111.887 28.1266C111.835 28.1235 111.783 28.1314 111.734 28.1499C111.686 28.1684 111.641 28.197 111.604 28.2339C111.567 28.2708 111.539 28.3151 111.52 28.3639C111.502 28.4127 111.494 28.4648 111.497 28.5169C111.498 28.5662 111.509 28.6148 111.529 28.6597C111.55 28.7045 111.579 28.7447 111.616 28.7778C111.653 28.8108 111.696 28.8359 111.742 28.8517C111.789 28.8674 111.839 28.8733 111.888 28.8691L111.887 28.8678ZM111.614 33.7054H112.16V29.7664H111.615L111.614 33.7054ZM115.516 33.0813C115.347 33.209 115.142 33.2775 114.93 33.2762C114.838 33.2823 114.746 33.268 114.66 33.2343C114.574 33.2006 114.497 33.1483 114.433 33.0812C114.37 33.0141 114.322 32.9338 114.294 32.8461C114.265 32.7584 114.256 32.6654 114.267 32.5739V30.2313H115.477V29.7664H114.267V28.908H113.721V29.7664H113.019V30.2344H113.721V32.6141C113.706 32.7699 113.726 32.9271 113.78 33.074C113.834 33.2209 113.921 33.3537 114.033 33.4625C114.146 33.5713 114.281 33.6533 114.43 33.7023C114.579 33.7513 114.736 33.7661 114.892 33.7456C115.19 33.7635 115.483 33.6656 115.711 33.4724L115.516 33.0822L115.516 33.0813ZM118.051 29.7262C117.47 29.7088 116.901 29.9029 116.452 30.2725L116.686 30.6627C117.061 30.3591 117.529 30.1938 118.012 30.1947C118.753 30.1947 119.143 30.5456 119.143 31.2479V31.4822H117.895C116.763 31.4822 116.373 31.9891 116.373 32.6136C116.373 33.2766 116.92 33.7451 117.817 33.7451C118.084 33.7732 118.353 33.7259 118.594 33.6088C118.836 33.4916 119.039 33.3092 119.182 33.0822V33.7062H119.69V31.2488C119.651 30.2344 119.066 29.7275 118.051 29.7275V29.7262ZM117.856 33.3151C117.232 33.3151 116.842 33.0419 116.842 32.5739C116.842 32.1836 117.076 31.8716 117.856 31.8716H119.105V32.4956C119.012 32.7484 118.841 32.9647 118.616 33.1124C118.391 33.26 118.125 33.3311 117.856 33.3151ZM121.094 33.7054H121.641V28.1279H121.094V33.7054ZM126.127 33.7442C127.141 33.7442 127.765 33.3151 127.765 32.6128C127.765 31.0914 125.23 31.9104 125.23 30.8183C125.23 30.428 125.542 30.1553 126.244 30.1553C126.662 30.1383 127.074 30.2618 127.414 30.5063L127.649 30.0771C127.223 29.8288 126.736 29.707 126.244 29.7262C125.23 29.7262 124.683 30.1942 124.683 30.8576C124.683 32.4183 127.219 31.5989 127.219 32.6521C127.219 33.0424 126.907 33.3151 126.166 33.3151C125.665 33.3159 125.176 33.1664 124.761 32.8859L124.527 33.3151C125.014 33.593 125.565 33.7408 126.126 33.7442H126.127ZM130.34 33.7442C130.868 33.7442 131.374 33.5347 131.747 33.1617C132.12 32.7887 132.329 32.2828 132.329 31.7553C132.329 31.2278 132.12 30.7219 131.747 30.3489C131.374 29.9759 130.868 29.7664 130.34 29.7664C130.076 29.7544 129.812 29.7977 129.565 29.8935C129.318 29.9892 129.094 30.1353 128.907 30.3224C128.72 30.5095 128.574 30.7336 128.478 30.9803C128.383 31.227 128.339 31.4909 128.351 31.7553C128.346 32.0181 128.393 32.2793 128.491 32.5232C128.589 32.7672 128.736 32.9887 128.922 33.1747C129.107 33.3606 129.329 33.507 129.573 33.6051C129.817 33.7032 130.078 33.751 130.341 33.7456L130.34 33.7442ZM130.34 33.2373C129.944 33.2256 129.569 33.0602 129.293 32.7761C129.017 32.492 128.863 32.1117 128.863 31.7158C128.863 31.3198 129.017 30.9395 129.293 30.6554C129.569 30.3713 129.944 30.2059 130.34 30.1942C130.73 30.2142 131.098 30.3832 131.367 30.6663C131.636 30.9495 131.786 31.3252 131.786 31.7158C131.786 32.1063 131.636 32.482 131.367 32.7652C131.098 33.0483 130.73 33.2173 130.34 33.2373ZM133.422 33.7054H133.968V28.1279H133.422V33.7054ZM138.455 29.7651V31.8327C138.455 32.7299 137.947 33.2762 137.129 33.2762C136.387 33.2762 135.958 32.847 135.958 32.0276V29.7664H135.412V32.0682C135.387 32.2949 135.413 32.5244 135.488 32.7397C135.564 32.955 135.687 33.1505 135.848 33.3118C136.009 33.4731 136.205 33.5961 136.42 33.6715C136.635 33.747 136.865 33.7731 137.092 33.7478C137.371 33.7613 137.648 33.6996 137.895 33.5692C138.142 33.4388 138.35 33.2445 138.496 33.0066V33.7089H139.003V29.7664L138.455 29.7651ZM142.356 33.0799C142.188 33.2076 141.982 33.2762 141.771 33.2749C141.679 33.281 141.586 33.2667 141.501 33.2329C141.415 33.1992 141.337 33.147 141.274 33.0799C141.211 33.0128 141.163 32.9325 141.134 32.8448C141.105 32.7571 141.096 32.6641 141.108 32.5725V30.23H142.317V29.7664H141.108V28.908H140.56V29.7664H139.858V30.2344H140.56V32.6141C140.545 32.7699 140.565 32.9271 140.619 33.074C140.673 33.2209 140.76 33.3537 140.872 33.4625C140.985 33.5713 141.12 33.6533 141.269 33.7023C141.418 33.7513 141.575 33.7661 141.731 33.7456C142.029 33.7635 142.322 33.6656 142.55 33.4724L142.355 33.0822L142.356 33.0799ZM143.8 28.8665C143.852 28.8697 143.904 28.8617 143.953 28.8432C144.001 28.8247 144.046 28.7961 144.083 28.7592C144.119 28.7223 144.148 28.678 144.167 28.6292C144.185 28.5805 144.193 28.5283 144.19 28.4762C144.189 28.4271 144.178 28.3787 144.157 28.334C144.137 28.2893 144.107 28.2493 144.071 28.2164C144.034 28.1835 143.991 28.1585 143.944 28.1428C143.898 28.1271 143.849 28.1212 143.8 28.1253C143.747 28.1221 143.695 28.1301 143.647 28.1486C143.598 28.167 143.553 28.1957 143.517 28.2326C143.48 28.2695 143.451 28.3138 143.433 28.3625C143.414 28.4113 143.406 28.4635 143.409 28.5156C143.41 28.565 143.421 28.6137 143.441 28.6588C143.462 28.7038 143.491 28.7441 143.528 28.7773C143.564 28.8105 143.607 28.8357 143.654 28.8515C143.701 28.8673 143.751 28.8733 143.8 28.8691L143.8 28.8665ZM143.526 33.704H144.073V29.7664H143.526V33.704ZM147.155 33.7429C147.682 33.7429 148.188 33.5334 148.561 33.1604C148.934 32.7874 149.144 32.2815 149.144 31.754C149.144 31.2265 148.934 30.7206 148.561 30.3476C148.188 29.9746 147.682 29.7651 147.155 29.7651C146.627 29.7651 146.121 29.9746 145.748 30.3476C145.375 30.7206 145.166 31.2265 145.166 31.754C145.166 32.2815 145.375 32.7874 145.748 33.1604C146.121 33.5334 146.627 33.7429 147.155 33.7429ZM147.155 33.236C146.759 33.2243 146.383 33.0589 146.107 32.7748C145.832 32.4907 145.677 32.1104 145.677 31.7144C145.677 31.3185 145.832 30.9381 146.107 30.6541C146.383 30.37 146.759 30.2046 147.155 30.1929C147.352 30.1882 147.549 30.225 147.731 30.3009C147.913 30.3768 148.078 30.49 148.214 30.6333C148.35 30.7767 148.454 30.9469 148.521 31.1331C148.587 31.3192 148.613 31.5172 148.598 31.7142C148.61 31.9107 148.582 32.1076 148.515 32.2926C148.448 32.4776 148.343 32.6469 148.208 32.7899C148.072 32.9328 147.909 33.0464 147.728 33.1236C147.547 33.2008 147.352 33.24 147.155 33.2386L147.155 33.236ZM152.265 29.7248C151.974 29.7071 151.684 29.7668 151.424 29.8978C151.163 30.0287 150.943 30.2263 150.783 30.4705V29.7664H150.276V33.7067H150.822V31.6391C150.804 31.4535 150.826 31.2661 150.888 31.09C150.949 30.9139 151.049 30.7534 151.179 30.6197C151.309 30.4859 151.466 30.3822 151.641 30.3156C151.815 30.2491 152.001 30.2214 152.188 30.2344C152.929 30.2344 153.358 30.6636 153.358 31.483V33.7067H153.904V31.4048C153.865 30.2733 153.202 29.7253 152.266 29.7253L152.265 29.7248ZM156.362 33.7429C157.376 33.7429 158 33.3138 158 32.6114C158 31.0901 155.464 31.9091 155.464 30.817C155.464 30.4267 155.776 30.154 156.479 30.154C156.897 30.137 157.309 30.2605 157.649 30.5049L157.883 30.0758C157.458 29.8274 156.971 29.7057 156.479 29.7248C155.464 29.7248 154.918 30.1929 154.918 30.8563C154.918 32.417 157.454 31.5975 157.454 32.6508C157.454 33.041 157.142 33.3138 156.401 33.3138C155.9 33.3146 155.411 33.1651 154.996 32.8846L154.762 33.3138C155.249 33.5917 155.8 33.7395 156.361 33.7429H156.362Z" fill="#5A5A5A"/>
<defs>
<linearGradient id="paint0_linear" x1="3290.29" y1="-4262.61" x2="3510.09" y2="-3590.51" gradientUnits="userSpaceOnUse">
<stop stop-color="#F15A24"/>
<stop offset="1" stop-color="#E3450C"/>
</linearGradient>
<linearGradient id="paint1_linear" x1="2918.71" y1="-3720.26" x2="3611" y2="-3833.69" gradientUnits="userSpaceOnUse">
<stop stop-color="#E3450C"/>
<stop offset="1" stop-color="#A62E02"/>
</linearGradient>
<linearGradient id="paint2_linear" x1="3216.12" y1="-4142.6" x2="3437.79" y2="-4814.61" gradientUnits="userSpaceOnUse">
<stop stop-color="#F15A24"/>
<stop offset="1" stop-color="#E3450C"/>
</linearGradient>
<linearGradient id="paint3_linear" x1="3137.59" y1="-4663.25" x2="3829.83" y2="-4549.38" gradientUnits="userSpaceOnUse">
<stop stop-color="#E3450C"/>
<stop offset="1" stop-color="#A62E02"/>
</linearGradient>
</defs>
</svg>
